Coordinates
version=1
nRows=11
nColumns=36
inDegrees=yes

Units are S.I. units (second, meters, Newtons, ...)
If the header above contains a line with 'inDegrees', this indicates whether rotational values are in degrees (yes) or radians (no).

endheader
time	pelvis_tilt	pelvis_list	pelvis_rotation	pelvis_tx	pelvis_ty	pelvis_tz	hip_flexion_r	hip_adduction_r	hip_rotation_r	knee_angle_r	knee_angle_r_beta	ankle_angle_r	subtalar_angle_r	mtp_angle_r	hip_flexion_l	hip_adduction_l	hip_rotation_l	knee_angle_l	knee_angle_l_beta	ankle_angle_l	subtalar_angle_l	mtp_angle_l	lumbar_extension	lumbar_bending	lumbar_rotation	arm_flex_r	arm_add_r	arm_rot_r	elbow_flex_r	pro_sup_r	arm_flex_l	arm_add_l	arm_rot_l	elbow_flex_l	pro_sup_l
      6.99000000	      1.99793891	      0.71091123	      0.77726019	     -0.18388674	      0.97013988	     -0.60434236	     -0.24491935	     -4.86183156	     -3.34677834	      8.16082291	      0.14243323	      9.14898885	      4.88229119	     -7.49999987	     -0.26040459	     -3.92903033	     -4.66857141	      6.27392306	      0.10950061	      4.17200214	     -0.61496059	     -7.49999987	     -4.12188513	     -1.55279796	      0.06179808	    -16.98975804	     -5.58772656	    -10.47287058	    114.69498532	    105.15577026	    -13.63946808	     -5.34884875	     -4.50373911	    114.53340590	    101.50053225
      7.00000000	      1.91746087	      0.72439709	      0.74726500	     -0.18538762	      0.97004479	     -0.60426682	      0.09918388	     -4.87246105	     -3.29265558	      8.42156224	      0.14698399	      8.98415868	      4.58717220	     -7.49999987	      0.12510351	     -3.93572815	     -4.77839696	      6.62648711	      0.11565402	      4.01347995	     -0.82788310	     -7.49999987	     -4.33966128	     -1.54834920	      0.16558853	    -16.89959015	     -5.50507627	    -10.80361948	    114.55238367	    108.10919632	    -13.35802960	     -5.43396191	     -4.68194424	    114.10529756	    104.00053544
      7.01000000	      1.81298934	      0.76530683	      0.76297502	     -0.18702766	      0.96983684	     -0.60416109	      0.46254270	     -4.90485169	     -3.15816781	      8.68011429	      0.15149657	      8.95590635	      4.27354014	     -7.49999987	      0.61022212	     -3.93631743	     -4.89069487	      7.09578437	      0.12384480	      4.06869796	     -0.76398515	     -7.49999987	     -4.55303425	     -1.61629824	      0.15997508	    -16.74437507	     -5.57062398	    -10.75725905	    114.49414675	    108.22400456	    -13.16710233	     -5.37676616	     -4.84881139	    114.17651718	    104.00988210
      7.02000000	      1.64089117	      0.82361568	      0.82020502	     -0.18883426	      0.96952689	     -0.60414444	      0.97668199	     -4.97294665	     -3.14443196	      9.07914505	      0.15846097	      8.98914794	      4.08942424	     -7.49999987	      1.19916571	     -3.88379306	     -4.74853911	      7.57114337	      0.13214138	      3.88271348	     -1.15992650	     -7.49999987	     -4.72447719	     -1.69139319	      0.11331442	    -16.60903899	     -5.60170865	    -10.68795029	    114.57734361	    107.96195284	    -12.97476598	     -5.35772477	     -4.94787131	    114.32810790	    103.65134383
      7.03000000	      1.34479268	      0.85824675	      0.84735106	     -0.19087900	      0.96903653	     -0.60414912	      1.70349424	     -5.01729804	     -3.00957364	      9.57598101	      0.16713240	      8.98997911	      3.78499041	     -7.49999987	      2.00031596	     -3.87683492	     -4.64570189	      8.19104432	      0.14296069	      3.99219183	     -1.16893330	     -7.49999987	     -4.80672931	     -1.72551409	      0.11942679	    -16.53312027	     -5.67376843	    -10.54448583	    114.87199562	    106.28478494	    -12.76224312	     -5.37473997	     -4.91122762	    114.71484057	    102.22320036
      7.04000000	      1.30748664	      0.88558671	      0.85432375	     -0.19305375	      0.96893241	     -0.60409437	      2.15912905	     -5.04372991	     -2.99495236	     10.05751023	      0.17553667	      8.88307588	      3.46484246	     -7.49999987	      2.49943751	     -3.88868133	     -4.64186846	      8.75298843	      0.15276847	      3.92341245	     -1.33676320	     -7.49999987	     -5.18573980	     -1.76073023	      0.10625889	    -16.25829910	     -5.74401905	    -10.35437615	    115.08232768	    103.00632999	    -12.38978574	     -5.43477532	     -4.81805255	    115.16331613	     99.15212694
      7.05000000	      0.89936322	      0.96075568	      0.91858370	     -0.19548036	      0.96822321	     -0.60404375	      3.08270718	     -5.13508848	     -2.82730409	     10.65347417	      0.18593820	      8.84755290	      3.16187905	     -7.49999987	      3.51975544	     -3.85875937	     -4.45832132	      9.48596564	      0.16556133	      3.85533154	     -1.41062390	     -7.49999987	     -5.17586930	     -1.86411138	      0.08209102	    -16.14329580	     -5.82567801	    -10.25859506	    115.29100164	    102.21272669	    -12.09697573	     -5.57084151	     -4.81713317	    115.54704467	     98.37430222
      7.06000000	      0.57518190	      1.04754695	      0.97913722	     -0.19808576	      0.96751879	     -0.60396082	      3.97195581	     -5.24255195	     -2.72029019	     11.35174308	      0.19812529	      8.94230172	      2.76658912	     -7.49999987	      4.45467334	     -3.81540399	     -4.41617505	     10.21076165	      0.17821141	      3.86865733	     -1.61405044	     -7.49999987	     -5.30421625	     -1.98740192	      0.01875211	    -15.89043734	     -5.91243276	    -10.17378073	    115.49384210	    101.64731459	    -11.73581770	     -5.70094513	     -4.79722502	    115.91084539	     97.84935168
      7.07000000	      0.21751825	      1.15234398	      1.01006775	     -0.20097566	      0.96674616	     -0.60404797	      4.93037822	     -5.37893161	     -2.52811947	     12.03813852	      0.21010515	      8.95108451	      2.37740277	     -7.49999987	      5.41104699	     -3.71705336	     -4.27884668	     10.88924177	      0.19005312	      3.82468750	     -1.79836834	     -7.49999987	     -5.43678603	     -2.04549330	     -0.05220424	    -15.55609638	     -6.05956139	    -10.06382480	    115.60364350	    101.14622790	    -11.22609537	     -5.85306616	     -4.75960652	    116.17732267	     97.33426102
      7.08000000	     -0.12712154	      1.23901116	      1.04284587	     -0.20415496	      0.96594218	     -0.60403733	      5.91760326	     -5.48075230	     -2.31047384	     12.78706165	      0.22317633	      8.97725575	      1.94215672	     -7.49999987	      6.37748791	     -3.64976456	     -4.12944844	     11.56800409	      0.20189976	      3.76586261	     -2.04522630	     -7.49999987	     -5.68505434	     -2.15055451	     -0.10029017	    -15.15509025	     -6.19863208	     -9.97953687	    115.82789184	    100.72447017	    -10.67964663	     -6.04302460	     -4.69873292	    116.57102696	     96.86806258
      7.09000000	     -0.48970224	      1.31713394	      1.06435080	     -0.20753607	      0.96503778	     -0.60399176	      6.96451633	     -5.57806507	     -2.13364774	     13.59335399	      0.23724878	      9.00414474	      1.50241204	     -7.49999987	      7.38664577	     -3.60225139	     -4.04626206	     12.27382467	      0.21421865	      3.70771544	     -2.29737925	     -7.49999987	     -5.93323471	     -2.22636790	     -0.13185607	    -14.67917185	     -6.30717504	     -9.94147873	    115.97352866	    100.36381735	    -10.02099597	     -6.22684614	     -4.64201490	    116.87976492	     96.47757271
